PathFileType	4	(X/Y/Z)	./resultDataOpenSim/trcMotMarkerGrf/sub06/qtm-13-06.trc
DataRate	CameraRate	NumFrames	NumMarkers	Units	OrigDataRate	OrigDataStartFrame	OrigNumFrames
250.000000	250.000000	14	24	m	250.000000	134	534
Frame#	Time	L.Toe.Tip			R.Toe.Tip			L.Ankle.Lat			R.Ankle.Lat			L.Ankle.Med			R.Ankle.Med			L.Heel			R.Heel			L.Knee.Lat			R.Knee.Lat			L.Knee.Med			R.Knee.Med			L.Thigh.Upper			R.Thigh.Upper			L.ASIS			R.ASIS			V.Sacral			L.Acromium			R.Acromium			C7			L.Elbow			R.Elbow			L.Wrist.Lat			R.Wrist.Lat
		X1	Y1	Z1	X2	Y2	Z2	X3	Y3	Z3	X4	Y4	Z4	X5	Y5	Z5	X6	Y6	Z6	X7	Y7	Z7	X8	Y8	Z8	X9	Y9	Z9	X10	Y10	Z10	X11	Y11	Z11	X12	Y12	Z12	X13	Y13	Z13	X14	Y14	Z14	X15	Y15	Z15	X16	Y16	Z16	X17	Y17	Z17	X18	Y18	Z18	X19	Y19	Z19	X20	Y20	Z20	X21	Y21	Z21	X22	Y22	Z22	X23	Y23	Z23	X24	Y24	Z24

134	0.532	-0.045542298	0.12596333	-0.084392438	-0.75460436	0.034570679	0.072914055	-0.17135804	0.09953393	-0.10213847	-0.87978482	0.084413486	0.093821768	-0.17450325	0.11520191	-0.017826872	-0.85373328	0.098661355	0.007100315	-0.21720056	0.036298226	-0.051141937	-0.93819491	0.07400345	0.030575176	-0.30418684	0.44199433	-0.10371759	-0.67949301	0.41927917	0.13126557	-0.32745812	0.4307932	0.022224781	-0.70424574	0.42384297	-0.00051084966	-0.49439523	0.77810105	-0.1516907	-0.57523445	0.76568986	0.18487155	-0.43562132	0.81919651	-0.095650106	-0.46084921	0.81509476	0.15174236	-0.62879301	0.89738533	0.020214977	-0.52392833	1.3039091	-0.17464252	-0.50215609	1.3010661	0.18603081	-0.59181579	1.3349795	0.0076692108	-0.64829457	1.0166561	-0.21426047	-0.49271296	0.98971476	0.29762363	-0.58096973	0.78650761	-0.26284152	-0.25796485	0.91282585	0.26191121
135	0.536	-0.038186118	0.12440586	-0.083287059	-0.75449874	0.034540875	0.072979812	-0.16382388	0.098082269	-0.10150301	-0.87869941	0.085769829	0.094150128	-0.16732501	0.11371415	-0.017233516	-0.85270833	0.099743595	0.0074096768	-0.21004498	0.034861459	-0.050851522	-0.93737732	0.076137717	0.030978878	-0.296204	0.44103864	-0.10348863	-0.67430428	0.41829661	0.13123291	-0.31969648	0.42984568	0.022290515	-0.69847268	0.42272344	-0.00060021976	-0.48707277	0.77644798	-0.15174357	-0.56891674	0.76424226	0.18459377	-0.42830833	0.8172344	-0.095489632	-0.45455039	0.8133767	0.15198648	-0.61989958	0.89552123	0.019800414	-0.51727486	1.3021328	-0.17512433	-0.49596297	1.2994537	0.18558468	-0.58533301	1.33337	0.0070913538	-0.64177317	1.0150545	-0.21420729	-0.48502913	0.98818429	0.29721671	-0.57630869	0.78460726	-0.26330384	-0.25004208	0.9128129	0.26112136
136	0.54	-0.031393085	0.12240481	-0.082097573	-0.75435577	0.034533495	0.073052448	-0.1568474	0.096357932	-0.10085938	-0.87753575	0.087170319	0.094482706	-0.16067061	0.1119376	-0.016614923	-0.85161676	0.10093326	0.0077605646	-0.20359778	0.033225381	-0.050689249	-0.93650685	0.078417898	0.031474	-0.28824573	0.44005986	-0.10330362	-0.66900926	0.41730258	0.13123375	-0.31179373	0.42905746	0.022283796	-0.69257686	0.42156776	-0.000663945	-0.47965922	0.77486519	-0.15185366	-0.5617445	0.76259402	0.18480983	-0.42102392	0.81533656	-0.09535953	-0.44807844	0.81147159	0.15241206	-0.61023609	0.89349719	0.019267925	-0.51055102	1.3003858	-0.1756286	-0.48974234	1.2978889	0.18510089	-0.57881573	1.331777	0.0064801302	-0.6351675	1.0135073	-0.21417258	-0.47744943	0.9866826	0.2967679	-0.57146369	0.78276658	-0.26373708	-0.24218151	0.91274688	0.2603293
137	0.544	-0.025157254	0.11998966	-0.08082959	-0.75418854	0.034546041	0.073133674	-0.15044094	0.094370725	-0.10021605	-0.87631398	0.088624602	0.094819682	-0.15456767	0.10988999	-0.015993071	-0.85043718	0.10224266	0.0081529776	-0.19783063	0.031395969	-0.050609336	-0.93556768	0.080851049	0.032095493	-0.28031496	0.43906589	-0.10316397	-0.6636047	0.41628372	0.13125472	-0.30377948	0.42841766	0.022199717	-0.68654769	0.42037906	-0.00069072274	-0.47219993	0.77334124	-0.15200123	-0.55401173	0.76090763	0.18541024	-0.41369371	0.81352922	-0.095225072	-0.44156125	0.80961396	0.15299804	-0.60095269	0.89153349	0.018554211	-0.50376155	1.2986751	-0.1761588	-0.48352071	1.2963739	0.1845776	-0.57227041	1.3301991	0.0058337348	-0.62848403	1.0120047	-0.21414691	-0.46998126	0.98521149	0.29627632	-0.56652917	0.78097539	-0.26417496	-0.23437513	0.91263034	0.25953225
138	0.548	-0.019466778	0.11718586	-0.079504392	-0.75399779	0.034577797	0.073222128	-0.14460036	0.092125278	-0.099583613	-0.87505186	0.090160499	0.095181579	-0.14905539	0.10758857	-0.015403331	-0.84914312	0.10366417	0.0085856843	-0.19269965	0.029381494	-0.050556936	-0.93453513	0.083433377	0.032818638	-0.27241455	0.43806764	-0.10307109	-0.65808581	0.41524022	0.13129037	-0.29568702	0.42790585	0.022037438	-0.68036811	0.41915332	-0.00066797559	-0.46478442	0.77186472	-0.15215802	-0.54634717	0.759322	0.18605761	-0.40617428	0.81184216	-0.095004527	-0.43516137	0.80797825	0.15367586	-0.59325842	0.88985218	0.017592272	-0.49690635	1.297005	-0.1767195	-0.47729679	1.294912	0.18401454	-0.56569706	1.3286366	0.0051501326	-0.62173806	1.0105424	-0.21412573	-0.46261915	0.98378239	0.29573763	-0.56158172	0.77922501	-0.2646477	-0.22664322	0.91246454	0.25873019
139	0.552	-0.014312073	0.11401193	-0.078167394	-0.7537764	0.034619238	0.073306075	-0.13930829	0.089627658	-0.098971306	-0.87375388	0.091803599	0.095587379	-0.14413977	0.10505764	-0.014864362	-0.84770303	0.10517006	0.0090580936	-0.18816547	0.027191863	-0.050486505	-0.93339643	0.086162595	0.033560543	-0.26454188	0.43708195	-0.10302533	-0.65243998	0.4141875	0.13134788	-0.28754556	0.42749736	0.02180334	-0.67402295	0.41788421	-0.00059472352	-0.45742867	0.77044159	-0.15230637	-0.53911	0.75782507	0.18642286	-0.3983368	0.81029859	-0.094604042	-0.428911	0.80654095	0.15434298	-0.58758191	0.88849778	0.016314826	-0.48998132	1.2953751	-0.17731449	-0.47106147	1.2935073	0.18341525	-0.5590886	1.3270907	0.0044249638	-0.61494498	1.0091171	-0.21410926	-0.45534966	0.98240584	0.29514004	-0.55662092	0.77751816	-0.26515387	-0.21900984	0.91224949	0.25792318
140	0.556	-0.0096837294	0.11048384	-0.076878078	-0.7535177	0.034654573	0.073368511	-0.13454836	0.086893264	-0.098382697	-0.87240721	0.093556556	0.096038776	-0.1397681	0.10232915	-0.014361755	-0.84609267	0.10674026	0.0095722149	-0.18420632	0.024846296	-0.050371012	-0.9321365	0.08904672	0.034246562	-0.25669602	0.43612684	-0.10302556	-0.64664966	0.41314127	0.13143857	-0.27938032	0.42716803	0.021509357	-0.66751364	0.41657262	-0.00048736959	-0.45003586	0.76910167	-0.15244565	-0.53224407	0.75637934	0.18639892	-0.39015866	0.80890449	-0.094011168	-0.4226755	0.80517447	0.15488485	-0.58331695	0.88733393	0.014775488	-0.48298293	1.2937823	-0.17794364	-0.4648171	1.2921623	0.18278356	-0.55244035	1.3255609	0.0036542123	-0.6080974	1.0077236	-0.21409576	-0.44816136	0.98108613	0.29447325	-0.55160407	0.77585738	-0.26567592	-0.21149169	0.91198795	0.2571188
141	0.56	-0.0055667401	0.10662305	-0.075698878	-0.75322308	0.034676558	0.073407533	-0.13030792	0.083946764	-0.097818487	-0.87099311	0.095409556	0.096526307	-0.13584713	0.099429827	-0.013870019	-0.84432865	0.10838344	0.010130273	-0.18081529	0.022376898	-0.050209622	-0.93071659	0.092103779	0.034856559	-0.24888775	0.4352149	-0.1030691	-0.64070304	0.41210406	0.13157054	-0.27121625	0.42688994	0.021166252	-0.66083888	0.41523141	-0.00035988792	-0.44249464	0.76787027	-0.15257951	-0.5256199	0.75501599	0.18610588	-0.38178624	0.80763396	-0.093359548	-0.41629379	0.80379192	0.15523937	-0.57908048	0.88615522	0.013232786	-0.47591051	1.2922252	-0.17860333	-0.45857315	1.2908766	0.18211872	-0.54575758	1.3240457	0.0028375514	-0.60114635	1.0063586	-0.2140799	-0.44105704	0.97982224	0.29374347	-0.54651349	0.7742323	-0.26622035	-0.20410293	0.91168527	0.2563351
142	0.564	-0.0019395892	0.10245991	-0.074688386	-0.75291156	0.034694535	0.073446689	-0.1265725	0.080815282	-0.097282523	-0.86947096	0.097364036	0.097048099	-0.13229839	0.096380361	-0.013381465	-0.84248114	0.11012405	0.010729167	-0.17798708	0.019821361	-0.050024357	-0.9290773	0.09534471	0.035410632	-0.24113784	0.43435424	-0.10314834	-0.63460342	0.41106361	0.13174466	-0.26307858	0.42662546	0.020782787	-0.65394705	0.41388015	-0.00020309512	-0.43476788	0.76674354	-0.15270207	-0.51914774	0.75373922	0.18572536	-0.37351712	0.80642769	-0.092884771	-0.4096851	0.80239142	0.15542817	-0.57364103	0.88482827	0.011929142	-0.46876367	1.2907023	-0.17928815	-0.45233286	1.2896491	0.18141553	-0.53904925	1.3225444	0.0019769169	-0.59403968	1.0050264	-0.21406181	-0.43405175	0.97860942	0.29297068	-0.54136492	0.77262566	-0.26682513	-0.19684876	0.91134153	0.25558262
143	0.568	0.0012227896	0.098024518	-0.073884424	-0.75261345	0.03472664	0.073516331	-0.12331924	0.077521018	-0.096779235	-0.8677637	0.099429916	0.097621794	-0.1290916	0.093205384	-0.012904184	-0.84060061	0.11197398	0.011365228	-0.17569118	0.017204622	-0.049822997	-0.92718141	0.098757806	0.035957218	-0.23346514	0.43355229	-0.10324526	-0.62836636	0.41000236	0.13195555	-0.25499081	0.42632855	0.020371044	-0.64678437	0.41252827	2.2661656e-06	-0.42688144	0.76569829	-0.15280018	-0.51268044	0.75249833	0.1853447	-0.36563824	0.80522934	-0.092767876	-0.40281185	0.80101924	0.15552601	-0.56681273	0.88336902	0.010796701	-0.46154051	1.2892089	-0.17999377	-0.44609217	1.2884774	0.18067188	-0.53231669	1.3210567	0.0010728704	-0.58680279	1.0037401	-0.21405643	-0.42716219	0.97744208	0.29217244	-0.53614422	0.77103739	-0.26750501	-0.18971982	0.91094575	0.25485379
144	0.572	0.0039478428	0.093338997	-0.073287168	-0.75233038	0.034783018	0.073624488	-0.12051493	0.074082203	-0.096311233	-0.8658322	0.10160734	0.098258519	-0.12622337	0.089930633	-0.012446148	-0.8386357	0.11392126	0.012046112	-0.17385423	0.014529174	-0.049559671	-0.92506543	0.10233067	0.036548163	-0.22587937	0.43281415	-0.10333441	-0.62198889	0.40891532	0.13220195	-0.24696979	0.42595007	0.019943096	-0.63941165	0.41116161	0.00026439493	-0.41886994	0.76471342	-0.15286758	-0.50608046	0.75127646	0.18494127	-0.35813536	0.80404107	-0.092953903	-0.39563027	0.79972255	0.1556186	-0.55924806	0.88189446	0.0095649021	-0.45423959	1.287739	-0.18072071	-0.43984677	1.2873569	0.17989352	-0.52555481	1.319582	0.00012378723	-0.57952963	1.0025096	-0.21408699	-0.42039583	0.97631901	0.29135344	-0.5307459	0.76950396	-0.26819756	-0.18270179	0.91048582	0.25414053
145	0.576	0.0062684906	0.088431923	-0.072872653	-0.7520133	0.034858476	0.073754642	-0.11812281	0.0705214	-0.095884069	-0.86376455	0.10388756	0.098922845	-0.1236857	0.086576399	-0.012012229	-0.83647724	0.11594503	0.012786178	-0.17239069	0.011798214	-0.049167385	-0.9228238	0.10610113	0.037148309	-0.21838503	0.4321355	-0.10340139	-0.6154004	0.40782433	0.13250301	-0.23902005	0.42544219	0.019499009	-0.63196183	0.40975611	0.0005924278	-0.41074737	0.76377985	-0.15291054	-0.49929857	0.75007431	0.18443715	-0.35066539	0.8029216	-0.093188368	-0.38814644	0.79851787	0.15574781	-0.55160148	0.88051076	0.0081418461	-0.44686377	1.2862925	-0.18147251	-0.43359626	1.2862854	0.17908906	-0.5187611	1.3181188	-0.0008721353	-0.5722703	1.0013286	-0.21416613	-0.41374625	0.97524383	0.2905081	-0.52502933	0.76807477	-0.2688079	-0.1757871	0.90996585	0.25344714
146	0.58	0.0082253289	0.083354179	-0.072622139	-0.75161344	0.034941665	0.073893419	-0.11610809	0.066867784	-0.095510029	-0.86168392	0.10626364	0.099564687	-0.12145683	0.083157521	-0.011613129	-0.83406047	0.11803141	0.013588424	-0.17124116	0.0090367328	-0.048636867	-0.92048101	0.11011435	0.03763658	-0.21098681	0.43148909	-0.10345962	-0.60848733	0.40676298	0.13289855	-0.23113901	0.42476108	0.019029095	-0.62450762	0.40830347	0.0010024895	-0.40251232	0.76289623	-0.1529386	-0.49238552	0.74883365	0.183725	-0.34292032	0.80191796	-0.093273562	-0.38049245	0.79737932	0.15586924	-0.54409351	0.87922953	0.006728958	-0.43942599	1.2848793	-0.18224911	-0.42733983	1.2852636	0.17826278	-0.51193657	1.3166658	-0.00191484	-0.56499008	1.0001834	-0.2142914	-0.40720692	0.97421936	0.28963563	-0.51898224	0.76675673	-0.2693125	-0.16897755	0.90940457	0.25277797
147	0.584	0.0098632454	0.07816605	-0.072527694	-0.75113584	0.035024517	0.074046983	-0.11443028	0.063148945	-0.095210714	-0.85957655	0.10873057	0.10018875	-0.11949861	0.079679886	-0.011276882	-0.83138422	0.12017496	0.014442688	-0.17035768	0.0062682638	-0.048026796	-0.91789893	0.1142993	0.037986522	-0.20369823	0.43079906	-0.1035405	-0.60125769	0.40572303	0.13340933	-0.22333175	0.42386833	0.01853626	-0.61704253	0.40681175	0.0014863138	-0.39415022	0.76205616	-0.15294917	-0.48548818	0.74748376	0.18275274	-0.33484957	0.80102546	-0.093192457	-0.37283593	0.79626357	0.15589769	-0.53659333	0.87798135	0.005592238	-0.43195233	1.2835072	-0.18304659	-0.42107156	1.2842888	0.17741337	-0.50508168	1.3152227	-0.0030010895	-0.55764305	0.99906905	-0.21446662	-0.40079353	0.97324511	0.28875387	-0.51275316	0.76550527	-0.26977612	-0.16228236	0.90881467	0.25212913
